<mxfile host="app.diagrams.net" modified="2020-09-15T06:31:40.319Z" agent="5.0 (Windows)" etag="p2aNU6EZiEW9JKrUwG5k" version="13.6.10" type="github">
  <diagram id="aj0dhYbqeNluErTvLIBp" name="Page-1">
    <mxGraphModel dx="910" dy="487" grid="1" gridSize="10" guides="1" tooltips="1" connect="1" arrows="1" fold="1" page="1" pageScale="1" pageWidth="1169" pageHeight="827" math="0" shadow="0">
      <root>
        <mxCell id="0" />
        <mxCell id="1" parent="0" />
        <mxCell id="FM7BHI-WfwuV63jyE6Yz-1" value="Trade Fair and Exhibitions - Initial Activities" style="swimlane;" parent="1" vertex="1">
          <mxGeometry x="10" y="20" width="1130" height="770" as="geometry" />
        </mxCell>
        <mxCell id="FM7BHI-WfwuV63jyE6Yz-2" value="Start" style="rounded=1;whiteSpace=wrap;html=1;fontSize=10;" parent="FM7BHI-WfwuV63jyE6Yz-1" vertex="1">
          <mxGeometry x="279" y="60" width="120" height="60" as="geometry" />
        </mxCell>
        <mxCell id="FM7BHI-WfwuV63jyE6Yz-5" value="HOD Develops a concept" style="rounded=0;whiteSpace=wrap;html=1;fontSize=10;" parent="FM7BHI-WfwuV63jyE6Yz-1" vertex="1">
          <mxGeometry x="279" y="190" width="120" height="60" as="geometry" />
        </mxCell>
        <mxCell id="1jr1Wj7bQm8I0KeO2i2Y-1" value="yes" style="text;html=1;strokeColor=none;fillColor=none;align=center;verticalAlign=middle;whiteSpace=wrap;rounded=0;fontSize=10;" vertex="1" parent="FM7BHI-WfwuV63jyE6Yz-1">
          <mxGeometry x="331" y="421" width="40" height="20" as="geometry" />
        </mxCell>
        <mxCell id="FM7BHI-WfwuV63jyE6Yz-8" value="Event coordinator is appointed, Preparatory committee is constituted and committee&#39;s TOR&#39;s developed" style="whiteSpace=wrap;html=1;rounded=0;fontSize=10;" parent="FM7BHI-WfwuV63jyE6Yz-1" vertex="1">
          <mxGeometry x="279" y="460" width="120" height="60" as="geometry" />
        </mxCell>
        <mxCell id="FM7BHI-WfwuV63jyE6Yz-10" value="Event coordinator prepares for initial countdown of activities" style="whiteSpace=wrap;html=1;rounded=0;fontSize=10;" parent="FM7BHI-WfwuV63jyE6Yz-1" vertex="1">
          <mxGeometry x="279" y="580" width="120" height="60" as="geometry" />
        </mxCell>
        <mxCell id="FM7BHI-WfwuV63jyE6Yz-11" value="" style="edgeStyle=orthogonalEdgeStyle;rounded=0;orthogonalLoop=1;jettySize=auto;html=1;fontSize=10;" parent="FM7BHI-WfwuV63jyE6Yz-1" source="FM7BHI-WfwuV63jyE6Yz-8" target="FM7BHI-WfwuV63jyE6Yz-10" edge="1">
          <mxGeometry relative="1" as="geometry" />
        </mxCell>
        <mxCell id="1jr1Wj7bQm8I0KeO2i2Y-4" value="no" style="text;html=1;strokeColor=none;fillColor=none;align=center;verticalAlign=middle;whiteSpace=wrap;rounded=0;fontSize=10;" vertex="1" parent="FM7BHI-WfwuV63jyE6Yz-1">
          <mxGeometry x="216" y="285" width="40" height="20" as="geometry" />
        </mxCell>
        <mxCell id="1jr1Wj7bQm8I0KeO2i2Y-10" value="End" style="rounded=1;whiteSpace=wrap;html=1;fontSize=10;" vertex="1" parent="FM7BHI-WfwuV63jyE6Yz-1">
          <mxGeometry x="680" y="580" width="120" height="60" as="geometry" />
        </mxCell>
        <mxCell id="1jr1Wj7bQm8I0KeO2i2Y-11" value="no" style="text;html=1;strokeColor=none;fillColor=none;align=center;verticalAlign=middle;whiteSpace=wrap;rounded=0;fontSize=10;" vertex="1" parent="FM7BHI-WfwuV63jyE6Yz-1">
          <mxGeometry x="410" y="669" width="40" height="20" as="geometry" />
        </mxCell>
        <mxCell id="FM7BHI-WfwuV63jyE6Yz-4" value="" style="edgeStyle=orthogonalEdgeStyle;rounded=0;orthogonalLoop=1;jettySize=auto;html=1;" parent="1" source="FM7BHI-WfwuV63jyE6Yz-2" edge="1">
          <mxGeometry relative="1" as="geometry">
            <mxPoint x="349" y="210" as="targetPoint" />
          </mxGeometry>
        </mxCell>
        <mxCell id="FM7BHI-WfwuV63jyE6Yz-9" value="" style="edgeStyle=orthogonalEdgeStyle;rounded=0;orthogonalLoop=1;jettySize=auto;html=1;fontSize=10;" parent="1" source="FM7BHI-WfwuV63jyE6Yz-6" target="FM7BHI-WfwuV63jyE6Yz-8" edge="1">
          <mxGeometry relative="1" as="geometry" />
        </mxCell>
        <mxCell id="1jr1Wj7bQm8I0KeO2i2Y-3" value="" style="edgeStyle=orthogonalEdgeStyle;rounded=0;orthogonalLoop=1;jettySize=auto;html=1;fontSize=10;entryX=0;entryY=0.5;entryDx=0;entryDy=0;" edge="1" parent="1" source="FM7BHI-WfwuV63jyE6Yz-6" target="FM7BHI-WfwuV63jyE6Yz-5">
          <mxGeometry relative="1" as="geometry">
            <mxPoint x="249" y="380" as="targetPoint" />
            <Array as="points">
              <mxPoint x="259" y="380" />
              <mxPoint x="259" y="240" />
            </Array>
          </mxGeometry>
        </mxCell>
        <mxCell id="FM7BHI-WfwuV63jyE6Yz-6" value="Approved by CEO?" style="rhombus;whiteSpace=wrap;html=1;rounded=0;fontSize=10;" parent="1" vertex="1">
          <mxGeometry x="309" y="340" width="80" height="80" as="geometry" />
        </mxCell>
        <mxCell id="FM7BHI-WfwuV63jyE6Yz-7" value="" style="edgeStyle=orthogonalEdgeStyle;rounded=0;orthogonalLoop=1;jettySize=auto;html=1;" parent="1" source="FM7BHI-WfwuV63jyE6Yz-5" target="FM7BHI-WfwuV63jyE6Yz-6" edge="1">
          <mxGeometry relative="1" as="geometry" />
        </mxCell>
        <mxCell id="1jr1Wj7bQm8I0KeO2i2Y-9" value="" style="edgeStyle=orthogonalEdgeStyle;rounded=0;orthogonalLoop=1;jettySize=auto;html=1;fontSize=10;entryX=0;entryY=0.5;entryDx=0;entryDy=0;" edge="1" parent="1" source="1jr1Wj7bQm8I0KeO2i2Y-6" target="1jr1Wj7bQm8I0KeO2i2Y-10">
          <mxGeometry relative="1" as="geometry">
            <mxPoint x="649" y="630" as="targetPoint" />
          </mxGeometry>
        </mxCell>
        <mxCell id="1jr1Wj7bQm8I0KeO2i2Y-12" value="yes" style="edgeLabel;html=1;align=center;verticalAlign=middle;resizable=0;points=[];fontSize=10;" vertex="1" connectable="0" parent="1jr1Wj7bQm8I0KeO2i2Y-9">
          <mxGeometry x="-0.2277" y="7" relative="1" as="geometry">
            <mxPoint y="-4" as="offset" />
          </mxGeometry>
        </mxCell>
        <mxCell id="1jr1Wj7bQm8I0KeO2i2Y-15" value="" style="edgeStyle=orthogonalEdgeStyle;rounded=0;orthogonalLoop=1;jettySize=auto;html=1;fontSize=10;entryX=0.5;entryY=1;entryDx=0;entryDy=0;" edge="1" parent="1" source="1jr1Wj7bQm8I0KeO2i2Y-6" target="FM7BHI-WfwuV63jyE6Yz-10">
          <mxGeometry relative="1" as="geometry">
            <mxPoint x="549" y="760" as="targetPoint" />
            <Array as="points">
              <mxPoint x="549" y="710" />
              <mxPoint x="349" y="710" />
            </Array>
          </mxGeometry>
        </mxCell>
        <mxCell id="1jr1Wj7bQm8I0KeO2i2Y-6" value="Approved by HOD?" style="rhombus;whiteSpace=wrap;html=1;rounded=0;fontSize=10;" vertex="1" parent="1">
          <mxGeometry x="509" y="590" width="80" height="80" as="geometry" />
        </mxCell>
        <mxCell id="1jr1Wj7bQm8I0KeO2i2Y-7" value="" style="edgeStyle=orthogonalEdgeStyle;rounded=0;orthogonalLoop=1;jettySize=auto;html=1;fontSize=10;" edge="1" parent="1" source="FM7BHI-WfwuV63jyE6Yz-10" target="1jr1Wj7bQm8I0KeO2i2Y-6">
          <mxGeometry relative="1" as="geometry" />
        </mxCell>
      </root>
    </mxGraphModel>
  </diagram>
</mxfile>
